# xmcd CD database file
#
# Track frame offsets:
#	150
#	14626
#	25284
#	42669
#	54174
#	65723
#	77825
#	90992
#	108246
#	122859
#	136685
#	145812
#	161583
#	173873
#	187718
#	199495
#	212346
#	231150
#	247395
#	260643
#	279913
#	292962
#	309784
#
# Disc length: 4297 seconds
#
# Revision: 0
# Processed by: cddbd v1.5PL3 Copyright (c) Steve Scherf et al.
# Submitted via: Feurio! 1.65 - http://www.feurio.com
#
DISCID=4710c717
DTITLE=F.Fender, Anderson, Denver, Lane, Turner, Burgess - Country
DYEAR=1900
DGENRE=
TTITLE0=John Denver - Home Grown Tomatoes
TTITLE1=Frankie Lane - Sixteen tons
TTITLE2=Lynn Anderson - Midnight train to georgia
TTITLE3=Freddy Fender - Before The Next Teardrop Falls
TTITLE4=Freddy Fender - I'm Leaving It All Up To You
TTITLE5=Sonny Burgess - Hang Up The Moon
TTITLE6=Freddy Fender - Wasted Days And Wasted Nights
TTITLE7=Lynn Anderson - Close to you
TTITLE8=Lynn Anderson - Sing me a song
TTITLE9=Lynn Anderson - Paradise
TTITLE10=Frankie Lane - Rawhide
TTITLE11=John Denver - Rocky Mountain Suite (Cold Nights In Canada)
TTITLE12=John Denver - Alaska And Me
TTITLE13=Frankie Lane - Still water runs cool
TTITLE14=Freddy Fender - Sweet Summer Day
TTITLE15=Lynn Anderson - Mansion on a hill
TTITLE16=Josh Turner - Long Black Train
TTITLE17=Josh Turner - In My Dreams
TTITLE18=Lynn Anderson - Keep me in mind
TTITLE19=Lynn Anderson - Love has no pride
TTITLE20=Freddy Fender - Silver Wings
TTITLE21=John Denver - Never A Doubt
TTITLE22=Lynn Anderson - It must be love
EXTD=
EXTT0=
EXTT1=
EXTT2=
EXTT3=
EXTT4=
EXTT5=
EXTT6=
EXTT7=
EXTT8=
EXTT9=
EXTT10=
EXTT11=
EXTT12=
EXTT13=
EXTT14=
EXTT15=
EXTT16=
EXTT17=
EXTT18=
EXTT19=
EXTT20=
EXTT21=
EXTT22=
PLAYORDER=
